# AST/ASF file generated using VICON BodyLanguage
# -----------------------------------------------
:version 1.10
:name VICON
:units
  mass 1.0
  length 0.45
  angle deg
:documentation
   .ast/.asf automatically generated from VICON data using
   VICON BodyBuilder and BodyLanguage model FoxedUp or BRILLIANT.MOD
:root
   order TX TY TZ RX RY RZ
   axis XYZ
   position 0 0 0  
   orientation 0 0 0 
:bonedata
  begin
     id 1 
     name lhipjoint
     direction 0.558404 -0.748506 0.357664 
     length 2.4234 
     axis 0 0 0  XYZ
  end
  begin
     id 2 
     name lfemur
     direction 0.34202 -0.939693 0  
     length 7.14567  
     axis 0 0 20  XYZ
    dof rx ry rz
    limits (-160.0 20.0)
           (-70.0 70.0)
           (-60.0 70.0)
  end
  begin
     id 3 
     name ltibia
     direction 0.34202 -0.939693 0   
     length 8.13956   
     axis 0 0 20   XYZ
    dof rx
    limits (-10.0 170.0)
  end
  begin
     id 4 
     name lfoot
     direction 0.0791314 -0.217412 0.972867   
     length 2.00134   
     axis -90 7.62852e-016 20   XYZ
    dof rx rz
    limits (-45.0 90.0)
           (-70.0 20.0)
  end
  begin
     id 5 
     name ltoes
     direction 1.53547e-011 -4.21922e-011 1   
     length 1.00735   
     axis -90 7.62852e-016 20   XYZ
    dof rx
    limits (-90.0 20.0)
  end
  begin
     id 6 
     name rhipjoint
     direction -0.496392 -0.78327 0.374276   
     length 2.31584  
     axis 0 0 0  XYZ 
  end
  begin
     id 7 
     name rfemur
     direction -0.34202 -0.939693 0   
     length 7.47417   
     axis 0 0 -20   XYZ
    dof rx ry rz
    limits (-160.0 20.0)
           (-70.0 70.0)
           (-70.0 60.0)
  end
  begin
     id 8 
     name rtibia
     direction -0.34202 -0.939693 0   
     length 7.69071   
     axis 0 0 -20   XYZ
    dof rx
    limits (-10.0 170.0)
 end
 begin
     id 9 
     name rfoot
     direction -0.103069 -0.28318 0.953512   
     length 2.16135  
     axis -90 -7.62852e-016 -20   XYZ
    dof rx rz
    limits (-45.0 90.0)
           (-20.0 70.0)
  end
  begin
     id 10 
     name rtoes
     direction -1.53581e-011 -4.21904e-011 1   
     length 1.07867   
     axis -90 -7.62852e-016 -20   XYZ
    dof rx
    limits (-90.0 20.0)
  end
  begin
     id 11 
     name lowerback
     direction -0.0258961 0.994776 -0.0987407   
     length 2.19412   
     axis 0 0 0   XYZ
    dof rx ry rz
    limits (-20.0 45.0)
           (-30.0 30.0)
           (-30.0 30.0)
  end
  begin
     id 12 
     name upperback
     direction 0.0402454 0.999185 0.00320666   
     length 2.18445   
     axis 0 0 0   XYZ
    dof rx ry rz
    limits (-20.0 45.0)
           (-30.0 30.0)
           (-30.0 30.0)
  end
  begin
     id 13 
     name thorax
     direction 0.0519376 0.997415 0.0496558   
     length 2.21487   
     axis 0 0 0   XYZ
    dof rx ry rz
    limits (-20.0 45.0)
           (-30.0 30.0)
           (-30.0 30.0)
  end
  begin
     id 14 
     name lowerneck
     direction -0.0921276 0.983211 0.157506   
     length 1.61201   
     axis 0 0 0   XYZ
    dof rx ry rz
    limits (-20.0 45.0)
           (-30.0 30.0)
           (-30.0 30.0)
  end
  begin
     id 15 
     name upperneck
     direction 0.0820814 0.98162 -0.172292   
     length 1.65275   
     axis 0 0 0   XYZ
    dof rx ry rz
    limits (-20.0 45.0)
           (-30.0 30.0)
           (-30.0 30.0)
  end
  begin
     id 16
     name head
     direction 0.0336554 0.996413 -0.0776455  
     length 1.66415  
     axis 0 0 0   XYZ
    dof rx ry rz
    limits (-20.0 45.0)
           (-30.0 30.0)
           (-30.0 30.0)
  end
  begin
     id 17 
     name lclavicle
     direction 0.94696 0.284418 -0.149576  
     length 3.41447  
     axis 0 0 0   XYZ
    dof ry rz
    limits (-20.0 10.0)
           (0.0 20.0)
  end
  begin
     id 18 
     name lhumerus
     direction 1 -0.000130264 -9.81312e-005   
     length 5.19964   
     axis 180 -30 -90   XYZ
    dof rx ry rz
    limits (-60.0 90.0)
           (-90.0 90.0)
           (-90.0 90.0)
  end
  begin
     id 19
     name lradius
     direction 1 -4.48961e-011 1.43854e-026   
     length 3.32189   
     axis 180 -30 -90   XYZ
    dof rx
    limits (-10.0 170.0)
  end
  begin
     id 20
     name lwrist
     direction 1 -4.48958e-011 3.1502e-026   
     length 1.66095   
     axis -1.97692e-014 90 90   XYZ
    dof ry
    limits (-180.0 0.0)
 end
  begin
     id 21 
     name lhand
     direction 1 -4.48927e-011 6.3004e-026   
     length 0.645616   
     axis -4.02019e-014 90 90   XYZ
    dof rx rz
    limits (-90.0 90.0)
           (-45.0 45.0)
  end
  begin
     id 22 
     name lfingers
     direction 1 -4.4904e-011 1.26008e-025   
     length 0.520512   
     axis -8.04039e-014 90 90   XYZ
    dof rx
    limits (0.0 90.0)
  end
  begin
     id 23
     name lthumb
     direction 0.707107 -6.34947e-011 0.707107   
     length 0.747354   
     axis -90 45 2.85299e-015   XYZ
    dof rx rz
    limits (-45.0 45.0)
           (-45.0 45.0)
  end
  begin
     id 24 
     name rclavicle
     direction -0.909391 0.383475 -0.161107   
     length 3.25176  
     axis 0 0 0   XYZ 
    dof ry rz
    limits (-10.0 20.0)
           (-20.0 0.0)
  end
  begin
     id 25 
     name rhumerus
     direction -1 -4.48965e-011 -1.81384e-027  
     length 5.6595   
     axis 180 30 90   XYZ
    dof rx ry rz
    limits (-90.0 60.0)
           (-90.0 90.0)
           (-90.0 90.0)
  end
  begin
     id 26 
     name rradius
     direction -1 -4.48996e-011 -8.09397e-027   
     length 3.37604   
     axis 180 30 90   XYZ
    dof rx
    limits (-10.0 170.0)
  end
  begin
     id 27 
     name rwrist
     direction -1 -4.48927e-011 -1.56669e-026   
     length 1.68802   
     axis 1.21142e-014 -90 -90   XYZ
    dof ry
    limits (-180.0 0.0)
  end
  begin
     id 28
     name rhand
     direction -1 -4.48912e-011 -3.13339e-026   
     length 0.824702   
     axis 1.99937e-014 -90 -90   XYZ
    dof rx rz
    limits (-90.0 90.0)
           (-45.0 45.0)
  end
  begin
     id 29
     name rfingers
     direction -1 -4.49011e-011 -6.26677e-026   
     length 0.664896   
     axis 3.99874e-014 -90 -90   XYZ
    dof rx
    limits (0.0 90.0)
  end
  begin
     id 30
     name rthumb
     direction -0.707107 -6.34931e-011 0.707107   
     length 0.954662   
     axis -90 -45 -2.85299e-015   XYZ
    dof rx rz
    limits (-45.0 45.0)
           (-45.0 45.0)
  end
:hierarchy
  begin
    root lhipjoint rhipjoint lowerback
    lhipjoint lfemur
    lfemur ltibia
    ltibia lfoot
    lfoot ltoes
    rhipjoint rfemur
    rfemur rtibia
    rtibia rfoot
    rfoot rtoes
    lowerback upperback
    upperback thorax
    thorax lowerneck lclavicle rclavicle
    lowerneck upperneck
    upperneck head
    lclavicle lhumerus
    lhumerus lradius
    lradius lwrist
    lwrist lhand lthumb
    lhand lfingers
    rclavicle rhumerus
    rhumerus rradius
    rradius rwrist
    rwrist rhand rthumb
    rhand rfingers
  end

#!OML:ASF F:\VICON\USERDATA\INSTALL\rory3\rory3.ASF
:FULLY-SPECIFIED
:DEGREES
176
root 9.4018 17.7815 -14.2967 3.71621 -34.5 -4.07373
lowerback 1.53448 0.713914 -0.918914
upperback -2.26798 1.02252 4.16755
thorax -3.29383 0.580574 4.78694
lowerneck -13.5655 -3.48347 -13.3545
upperneck 20.8732 -4.45218 11.31
head 9.34271 -2.00343 5.65381
rclavicle -5.31749e-014 6.36111e-015
rhumerus -37.8244 -21.3193 -63.5791
rradius 36.1658
rwrist -14.4082
rhand -10.344 17.9607
rfingers 7.12502
rthumb 15.6524 -11.4261
lclavicle -5.31749e-014 6.36111e-015
lhumerus -27.4476 11.4363 73.8952
lradius 22.6535
lwrist -11.7221
lhand 0.830142 32.4022
lfingers 7.12502
lthumb 26.3853 60.5862
rfemur -14.1383 4.519 15.3549
rtibia 34.9874
rfoot -18.0857 -5.41369
rtoes 9.07599
lfemur -9.08012 -1.40037 -17.6256
ltibia 34.874
lfoot -24.1042 13.0648
ltoes 1.84307
177
root 9.40291 17.7848 -14.3039 3.71494 -34.7986 -3.97823
lowerback 1.51292 0.57587 -1.0998
upperback -2.18778 0.829196 4.13347
thorax -3.1832 0.485368 4.86274
lowerneck -13.3522 -3.62196 -13.2966
upperneck 20.3924 -4.65412 11.3141
head 9.16432 -2.09365 5.60377
rclavicle -2.20651e-014 -3.4191e-014
rhumerus -37.5893 -20.9657 -64.0643
rradius 36.348
rwrist -14.7292
rhand -10.3227 17.8977
rfingers 7.12502
rthumb 15.6729 -11.4875
lclavicle -2.20651e-014 -3.4191e-014
lhumerus -27.2959 11.6579 73.8245
lradius 22.7643
lwrist -11.5563
lhand 0.418175 32.171
lfingers 7.12502
lthumb 25.9909 60.4136
rfemur -14.2748 4.47402 15.2247
rtibia 34.9675
rfoot -17.974 -5.04567
rtoes 8.49709
lfemur -9.10596 -1.27913 -17.7291
ltibia 34.8614
lfoot -24.101 13.1964
ltoes 1.9966
178
root 9.40726 17.7866 -14.313 3.86194 -35.2278 -4.09032
lowerback 1.44623 0.550068 -0.970467
upperback -2.15818 0.795349 4.08472
thorax -3.10858 0.463077 4.7395
lowerneck -12.908 -3.80013 -13.3629
upperneck 19.8726 -4.93914 11.4437
head 8.94843 -2.22778 5.6109
rclavicle -1.54307e-013 7.95139e-016
rhumerus -37.5988 -20.7304 -64.3612
rradius 36.5967
rwrist -15.3473
rhand -9.9047 17.8117
rfingers 7.12502
rthumb 16.0754 -11.5415
lclavicle -1.54307e-013 7.95139e-016
lhumerus -27.1839 11.5918 73.8289
lradius 22.9609
lwrist -11.4899
lhand 0.226752 32.0444
lfingers 7.12502
lthumb 25.8075 60.3138
rfemur -14.5094 4.63874 15.2851
rtibia 34.9546
rfoot -17.9125 -4.70423
rtoes 9.09709
lfemur -9.17424 -1.15184 -17.666
ltibia 34.8495
lfoot -24.1073 13.4502
ltoes 2.14908
179
root 9.41328 17.7852 -14.317 3.89671 -35.6837 -4.12479
lowerback 1.32165 0.446362 -0.9398
upperback -1.90888 0.647244 3.98543
thorax -2.76475 0.379322 4.62337
lowerneck -13.3335 -3.92056 -13.1109
upperneck 19.7409 -5.13892 11.612
head 9.00831 -2.27232 5.59796
rclavicle -9.0944e-014 3.57812e-014
rhumerus -37.0996 -20.9675 -64.8182
rradius 36.5289
rwrist -15.3996
rhand -9.58621 17.9111
rfingers 7.12502
rthumb 16.3821 -11.4171
lclavicle -9.0944e-014 3.57812e-014
lhumerus -26.6364 11.5518 73.7313
lradius 23.0349
lwrist -11.4312
lhand 0.223946 32.0811
lfingers 7.12502
lthumb 25.8049 60.3509
rfemur -14.6615 4.80488 15.2624
rtibia 34.9548
rfoot -17.8856 -4.55476
rtoes 8.68028
lfemur -9.14739 -1.01289 -17.7048
ltibia 34.8331
lfoot -24.156 13.7348
ltoes 2.20032
180
root 9.41715 17.7828 -14.3144 3.72785 -36.1201 -3.82732
lowerback 1.24917 0.461708 -1.11953
upperback -1.99709 0.663587 3.92544
thorax -2.81801 0.392694 4.66281
lowerneck -12.6827 -4.07807 -13.5249
upperneck 19.4816 -5.40151 11.9081
head 8.85582 -2.41761 5.73792
rclavicle 2.86995e-014 -4.69132e-014
rhumerus -37.4119 -21.6049 -64.2837
rradius 36.2841
rwrist -14.7719
rhand -9.29912 18.2587
rfingers 7.12502
rthumb 16.6585 -11.0464
lclavicle 2.86995e-014 -4.69132e-014
lhumerus -26.5735 10.9918 74.0132
lradius 23.0665
lwrist -11.1958
lhand 0.539938 32.4568
lfingers 7.12502
lthumb 26.1074 60.6822
rfemur -14.7662 4.79113 14.9158
rtibia 34.9493
rfoot -17.8296 -4.32183
rtoes 6.94768
lfemur -9.07186 -0.867317 -18.0729
ltibia 34.8521
lfoot -24.2309 14.0376
ltoes 2.0497
181
root 9.42144 17.783 -14.316 3.83789 -36.5636 -3.79918
lowerback 1.08651 0.355656 -1.20133
upperback -1.88935 0.514991 3.903
thorax -2.60206 0.315133 4.69123
lowerneck -13.1852 -4.2246 -13.1747
upperneck 19.722 -5.57539 11.6095
head 9.03844 -2.4883 5.55241
rclavicle 4.12478e-015 1.51076e-014
rhumerus -37.001 -22.2288 -64.3243
rradius 35.9087
rwrist -13.9546
rhand -9.40085 18.433
rfingers 7.12502
rthumb 16.5605 -10.8803
lclavicle 4.12478e-015 1.51076e-014
lhumerus -26.2321 10.9309 74.0325
lradius 23.2647
lwrist -10.8259
lhand 1.24724 33.3065
lfingers 7.12502
lthumb 26.7845 61.4301
rfemur -15.0187 4.91011 14.8361
rtibia 34.9504
rfoot -17.767 -4.0533
rtoes 6.00165
lfemur -9.15247 -0.84686 -18.1879
ltibia 34.8876
lfoot -24.3188 14.3839
ltoes 2.23553
